<?xml version="1.0" encoding="UTF-8"?>
<svg version="1.1" xmlns="http://www.w3.org/2000/svg" width="928" height="866">
<path d="M0 0 C123.09 0 246.18 0 373 0 C373 27.39 373 54.78 373 83 C345.625 83.3125 345.625 83.3125 337.04150391 83.38793945 C334.76984041 83.42025634 332.49819165 83.45363383 330.2265625 83.48828125 C328.48959106 83.49764709 328.48959106 83.49764709 326.7175293 83.50720215 C316.40543008 83.68825092 307.20748344 85.16683717 299.4453125 92.4609375 C286.07730396 106.6270361 290.51293492 125.53434283 290 144 C387.35 144 484.7 144 585 144 C586.6314068 115.43133977 586.6314068 115.43133977 575.0625 91.7578125 C568.38568759 86.06734738 560.91391614 83.93091967 552.29174805 83.79467773 C551.15539917 83.77449585 550.01905029 83.75431396 548.8482666 83.73352051 C547.66470581 83.71704468 546.48114502 83.70056885 545.26171875 83.68359375 C544.16589478 83.66494263 543.0700708 83.6462915 541.94104004 83.6270752 C537.85660691 83.55889544 533.7720441 83.49867154 529.6875 83.4375 C515.9821875 83.2209375 515.9821875 83.2209375 502 83 C502 55.61 502 28.22 502 0 C599.02 0 696.04 0 796 0 C796 27.39 796 54.78 796 83 C767.125 83.3125 767.125 83.3125 758.06689453 83.38793945 C755.67218496 83.42025342 753.2774894 83.45363051 750.8828125 83.48828125 C749.66005615 83.49452515 748.4372998 83.50076904 747.17749023 83.50720215 C736.68221804 83.68208802 727.35878792 85.02465658 719.4453125 92.4609375 C710.13070055 102.33164569 710.3576796 113.85620269 710.25 126.625 C710.22179336 128.31383206 710.1918595 130.00263621 710.16015625 131.69140625 C710.08685041 135.79422009 710.03693794 139.89670419 710 144 C717.23694578 143.90654647 724.47359392 143.7991134 731.71020508 143.68261719 C734.16458606 143.64467693 736.61901608 143.60976794 739.07348633 143.578125 C771.53926264 143.15451446 802.37630974 140.06375772 828 118 C828.85464844 117.29359375 829.70929687 116.5871875 830.58984375 115.859375 C846.89214576 101.89315016 858.24002056 83.27993832 865 63 C869.55827461 64.47140693 871.16632825 68.09452322 873.3125 72.0625 C873.70276367 72.77639893 874.09302734 73.49029785 874.49511719 74.22583008 C891.90961933 106.76251724 895.89480117 143.29911682 885.17773438 178.72314453 C878.87734991 198.14630384 868.18498083 214.47927997 854 229 C853.27296875 229.78890625 852.5459375 230.5778125 851.796875 231.390625 C830.45199045 254.0003916 799.47087214 265.12139702 769 267 C764.30640481 267.122338 759.61680033 267.11737911 754.921875 267.09765625 C753.62928772 267.0962413 752.33670044 267.09482635 751.00494385 267.09336853 C747.6118975 267.08959801 744.21889574 267.07981625 740.8258667 267.06866455 C737.34615685 267.05833111 733.86643961 267.05384567 730.38671875 267.04882812 C723.59112781 267.03818754 716.79556606 267.02117911 710 267 C710.00113916 267.54527076 710.00227832 268.09054152 710.003452 268.65233564 C710.07079101 301.07027432 710.12216259 333.48819427 710.15319599 365.90618691 C710.15694748 369.81083045 710.16083051 373.71547385 710.16479492 377.62011719 C710.16558185 378.39736281 710.16636878 379.17460843 710.16717956 379.97540694 C710.18018376 392.51074342 710.20380966 405.04603803 710.23145839 417.58134979 C710.25965219 430.47264454 710.27620556 443.36391757 710.28226548 456.25524187 C710.28635318 464.19054965 710.29919628 472.12573903 710.3237494 480.0610103 C710.34169252 486.17677432 710.34333084 492.29245072 710.33932304 498.40823746 C710.34013939 500.89440254 710.34598456 503.38057266 710.35761642 505.86671066 C710.62283388 565.54788029 692.007919 620.9245595 651 665 C649.7868031 666.39160821 648.57823786 667.78727188 647.375 669.1875 C641.70578733 675.65920396 635.65437389 681.22854681 628.94140625 686.6171875 C626.98894799 688.19886019 625.05866854 689.80833127 623.15234375 691.4453125 C606.01385514 706.16180743 586.26216493 717.12863187 566 726.9375 C564.87883789 727.48124268 563.75767578 728.02498535 562.60253906 728.58520508 C544.93658231 737 544.93658231 737 540 737 C540.08203123 740.31342702 540.19475771 743.62516492 540.3125 746.9375 C540.33505859 747.86369141 540.35761719 748.78988281 540.38085938 749.74414062 C540.71572369 758.42017062 542.16409946 765.35914766 548 772 C548 772.66 548 773.32 548 774 C548.55816406 774.27714844 549.11632812 774.55429687 549.69140625 774.83984375 C551.26800475 775.63214452 552.83811517 776.43745523 554.40234375 777.25390625 C555.23894531 777.68574219 556.07554687 778.11757813 556.9375 778.5625 C557.77152344 778.99691406 558.60554687 779.43132813 559.46484375 779.87890625 C563.81900641 781.80439883 567.98446726 782.13068007 572.70825195 782.20532227 C574.41277527 782.23559509 574.41277527 782.23559509 576.1517334 782.26647949 C577.33529419 782.28295532 578.51885498 782.29943115 579.73828125 782.31640625 C581.38201721 782.34438293 581.38201721 782.34438293 583.05895996 782.3729248 C587.14339309 782.44110456 591.2279559 782.50132846 595.3125 782.5625 C604.449375 782.706875 613.58625 782.85125 623 783 C623 810.39 623 837.78 623 866 C499.91 866 376.82 866 250 866 C250 838.61 250 811.22 250 783 C278.875 782.6875 278.875 782.6875 287.93310547 782.61206055 C290.32781504 782.57974658 292.7225106 782.54636949 295.1171875 782.51171875 C296.33994385 782.50547485 297.5627002 782.49923096 298.82250977 782.49279785 C309.74770582 782.31074803 318.88437441 780.75412779 327 773 C331.7924829 767.47584032 333.85460951 762.19818676 335 755 C334.18660156 754.82460693 333.37320312 754.64921387 332.53515625 754.46850586 C269.15143113 740.71249071 210.01840508 717.55703818 161.54296875 673.3203125 C159.76533432 671.69832348 157.97518179 670.08999545 156.17578125 668.4921875 C150.69488436 663.60200119 145.69741871 658.63690245 141 653 C140.19175781 652.07960938 139.38351563 651.15921875 138.55078125 650.2109375 C127.44403741 637.51059983 117.90257176 623.84557974 110.02490234 608.92236328 C109.05127612 607.09617632 108.04006897 605.29635676 107.01953125 603.49609375 C96.47681936 584.33755009 89.94520323 561.58327096 87 540 C86.83162156 538.85788307 86.66324312 537.71576614 86.48976231 536.53903961 C85.84956825 531.3654706 85.84685484 526.22255386 85.84178162 521.01550293 C85.83437465 519.3881631 85.83437465 519.3881631 85.82681805 517.72794771 C85.81149956 514.10444059 85.80309775 510.4809511 85.79467773 506.85742188 C85.78509477 504.25528815 85.77508444 501.65315596 85.76467896 499.05102539 C85.74297385 493.45483632 85.72480771 487.85864484 85.70907402 482.26243591 C85.68632084 474.17134832 85.6581857 466.08028641 85.62875474 457.98922068 C85.58114545 444.86066369 85.53786331 431.73209618 85.49731445 418.60351562 C85.45792556 405.85350729 85.41649125 393.1035083 85.37231445 380.35351562 C85.36959018 379.56705058 85.36686591 378.78058554 85.36405908 377.97028822 C85.35037905 374.02465836 85.33665888 370.07902865 85.32291877 366.13339901 C85.20905872 333.42228531 85.10222632 300.71115216 85 268 C81.84060588 268.59873981 78.68384245 269.21041269 75.52734375 269.82421875 C74.64413452 269.99143433 73.76092529 270.1586499 72.85095215 270.33093262 C56.57564968 273.51856953 42.09118135 280.52759141 28.5625 290.0625 C27.71147705 290.66143066 27.71147705 290.66143066 26.84326172 291.27246094 C23.88092177 293.42482026 21.26514036 295.67645293 18.71484375 298.30859375 C16 301 16 301 14 301 C13.61521484 301.87011719 13.61521484 301.87011719 13.22265625 302.7578125 C11.88700357 305.20722028 10.37075692 306.86753726 8.4375 308.875 C-1.44454943 319.86498264 -7.37225573 332.47501241 -13 346 C-16.38084254 344.87305249 -16.59541116 344.50061586 -18.26953125 341.5625 C-18.68058105 340.84118896 -19.09163086 340.11987793 -19.51513672 339.37670898 C-19.9432666 338.59239502 -20.37139648 337.80808105 -20.8125 337 C-21.47789795 335.78582397 -21.47789795 335.78582397 -22.15673828 334.54711914 C-38.30039263 304.26967482 -41.67760438 267.96118463 -31.79394531 235.16650391 C-26.41856873 218.43051101 -18.44619678 203.35098373 -7 190 C-6.56574707 189.48888672 -6.13149414 188.97777344 -5.68408203 188.45117188 C15.64204859 163.54860941 45.36545863 147.73069674 78 144 C80.66798682 143.94993138 83.33119246 143.98224587 86 144 C85.93049508 139.34048243 85.84223694 134.68180935 85.73754883 130.02294922 C85.70455863 128.44231642 85.67644852 126.86157313 85.65356445 125.28076172 C85.4697581 112.91489571 85.21590311 101.33611055 76 92 C66.54622107 84.12185089 57.21049068 83.69555699 45.3125 83.5859375 C44.16072266 83.56829346 43.00894531 83.55064941 41.82226562 83.5324707 C37.5483152 83.46973433 33.27413772 83.42331992 29 83.375 C19.43 83.25125 9.86 83.1275 0 83 C0 55.61 0 28.22 0 0 Z M290 266 C289.90940311 299.0708438 289.8378693 332.14163945 289.79573868 365.21257889 C289.7907364 369.12495514 289.78555906 373.03733115 289.78027344 376.94970703 C289.7792242 377.72852651 289.77817495 378.507346 289.77709392 379.30976607 C289.75973172 391.88797205 289.72821735 404.46610423 289.69138882 417.04426657 C289.65386246 429.96943072 289.63173955 442.89455645 289.62364602 455.81977284 C289.61818237 463.78277592 289.60098373 471.74557032 289.56833413 479.7085091 C289.54450909 485.83467261 289.54220942 491.96068004 289.54756927 498.08688354 C289.54647619 500.58524986 289.53861875 503.08362467 289.5231781 505.58194351 C289.33214275 538.10962435 297.41718942 562.96440504 320 587 C324.97233218 592.00993943 329.9327254 596.35963524 336 600 C336 489.78 336 379.56 336 266 C320.82 266 305.64 266 290 266 Z M540 267 C540 374.91 540 482.82 540 594 C558.8804365 584.55978175 572.28500474 559.70311035 579.3125 540.625 C579.54300049 540.01479004 579.77350098 539.40458008 580.01098633 538.77587891 C585.45767975 523.00987174 585.42121548 506.77260663 585.34057617 490.30444336 C585.33972829 487.85861725 585.34020817 485.41279039 585.34190369 482.96696472 C585.34258248 477.73593224 585.33418365 472.50500163 585.31719017 467.27400017 C585.29263778 459.71119166 585.28497846 452.1484372 585.2812262 444.58559317 C585.27468693 432.31053044 585.25479494 420.03552807 585.22631836 407.76049805 C585.19871198 395.84806619 585.17751076 383.93565082 585.16479492 372.02319336 C585.16361267 370.91873045 585.16361267 370.91873045 585.16240653 369.79195517 C585.15849095 366.09750638 585.15469994 362.40305748 585.15097082 358.70860851 C585.11995367 328.13901953 585.06469358 297.56954157 585 267 C570.15 267 555.3 267 540 267 Z " fill="#252122" transform="translate(37,0)"/>
<path d="M0 0 C0.85848272 -0.00115384 1.71696544 -0.00230769 2.60146278 -0.0034965 C5.47364199 -0.0061401 8.34576497 -0.00165963 11.21794128 0.00279331 C13.29962044 0.00235715 15.38129955 0.00148141 17.46297836 0.00020415 C23.1799022 -0.00203195 28.89680731 0.0019684 34.61372876 0.00698221 C40.77997159 0.01129919 46.94621336 0.00983939 53.11245728 0.00907993 C63.79479761 0.00855549 74.47713123 0.01165906 85.1594696 0.01731777 C96.36186248 0.02323675 107.56425291 0.02708411 118.76664734 0.02817059 C119.81182111 0.0282737 119.81182111 0.0282737 120.8781095 0.02837889 C124.41678042 0.02871723 127.95545134 0.02901861 131.49412227 0.02930576 C156.55221008 0.03140563 181.61029471 0.03814149 206.66838074 0.04760838 C231.01050296 0.05679415 255.35262431 0.06387711 279.69474792 0.06811619 C280.8204348 0.06831348 280.8204348 0.06831348 281.96886282 0.06851475 C289.50533601 0.06983328 297.04180922 0.0711091 304.57828243 0.07235361 C319.93066225 0.07488976 335.28304201 0.07771101 350.63542175 0.08070469 C351.34128436 0.08084198 352.04714697 0.08097927 352.77439936 0.08112072 C399.90296096 0.09031988 447.03152046 0.10639337 494.16007996 0.12304783 C494.16007996 24.54304783 494.16007996 48.96304783 494.16007996 74.12304783 C470.73007996 74.12304783 447.30007996 74.12304783 423.16007996 74.12304783 C423.17093335 123.39120131 423.18567246 172.65934404 423.234375 221.92747593 C423.23509445 222.65705886 423.2358139 223.38664179 423.23655516 224.13833329 C423.25222913 239.99544549 423.26901166 255.85255635 423.28693558 271.70966617 C423.29571916 279.48637585 423.30425786 287.26308578 423.31266785 295.03979588 C423.31350889 295.81365785 423.31434994 296.58751982 423.31521648 297.38483215 C423.34234568 322.45242827 423.3533157 347.51999969 423.3558752 372.58760934 C423.35859175 398.35522305 423.37767199 424.12277436 423.41724111 449.89035908 C423.42282676 453.53271503 423.42822602 457.17507124 423.43351173 460.81742764 C423.43508079 461.89269327 423.43508079 461.89269327 423.43668154 462.98968144 C423.45301777 474.51294919 423.45218549 486.03615435 423.44487713 497.5594287 C423.43789203 509.15389718 423.44952846 520.74821188 423.47874286 532.34264881 C423.49402169 538.62089379 423.50126087 544.89887423 423.48667717 551.17712688 C423.4734905 556.93106641 423.48349007 562.68449412 423.51151768 568.43837618 C423.51760932 570.51399213 423.5153723 572.58965383 423.50370922 574.66524596 C423.40994583 592.77646113 426.16229684 607.87554183 438.66007996 621.93554783 C439.48507996 622.65742283 440.31007996 623.37929783 441.16007996 624.12304783 C441.87357605 624.82300877 441.87357605 624.82300877 442.60148621 625.53711033 C455.92217005 638.05534334 473.11308641 639.54119892 490.47257996 639.81054783 C495.64945496 639.91367283 500.82632996 640.01679783 506.16007996 640.12304783 C506.16007996 651.34304783 506.16007996 662.56304783 506.16007996 674.12304783 C399.24007996 674.12304783 292.32007996 674.12304783 182.16007996 674.12304783 C182.16007996 662.90304783 182.16007996 651.68304783 182.16007996 640.12304783 C184.71757996 640.10886814 187.27507996 640.09468845 189.91007996 640.08007908 C192.44568648 640.04927987 194.98104547 640.01023863 197.51652527 639.97045994 C199.25015721 639.94756472 200.98392262 639.93295268 202.71769714 639.92749119 C220.76412533 639.85952955 238.17655655 636.63131726 251.97257996 623.87304783 C262.24077454 612.65316692 267.31754704 599.46937587 267.29874516 584.40239334 C267.30300848 583.0793406 267.30300848 583.0793406 267.30735794 581.72955951 C267.31571295 578.75920636 267.31697379 575.78889218 267.31829834 572.81852818 C267.32286314 570.67344057 267.32786304 568.52835385 267.33326191 566.38326818 C267.34686176 560.47715007 267.35426672 554.57103773 267.36068857 548.66490805 C267.36868439 542.30023974 267.38238498 535.93558347 267.395401 529.57092381 C267.41717535 518.53985752 267.43535084 507.50879018 267.45100594 496.47771358 C267.46744162 484.90720442 267.48592214 473.33670149 267.50713921 461.76620007 C267.50845681 461.04702979 267.50977442 460.3278595 267.51113195 459.58689619 C267.51783395 455.93465761 267.52457254 452.28241911 267.53132521 448.63018063 C267.57910004 422.75516912 267.62228169 396.88015177 267.6627655 371.00512791 C267.70210774 345.86645172 267.74352841 320.72778036 267.7877655 295.58911228 C267.78912803 294.81435489 267.79049056 294.03959751 267.79189438 293.24136262 C267.80557965 285.46099609 267.81930719 277.68062964 267.83306572 269.90026324 C267.86109296 254.05047836 267.88883798 238.200693 267.91641235 222.35090733 C267.91768055 221.62214502 267.91894875 220.89338272 267.92025538 220.14253672 C268.00492451 171.46938158 268.0829938 122.7962155 268.16007996 74.12304783 C232.09102122 74.18199126 196.02202857 74.25658799 159.95304754 74.35203411 C155.69002738 74.36330161 151.4270069 74.37444017 147.16398621 74.385499 C145.89100691 74.38880453 145.89100691 74.38880453 144.59231086 74.39217683 C130.87010934 74.42750191 117.14790788 74.45239304 103.42567782 74.47339485 C89.33431933 74.49519511 75.24301959 74.5282855 61.15171111 74.57174939 C52.46403238 74.59819346 43.7764268 74.6159421 35.08870985 74.62239387 C29.12266243 74.62767 23.15670685 74.64396116 17.19070874 74.66871349 C13.75407746 74.68265269 10.3176103 74.69192796 6.88094902 74.68805599 C-12.19639902 74.54419836 -12.19639902 74.54419836 -30.83992004 78.12304783 C-31.59070642 78.31493844 -32.34149281 78.50682905 -33.11503029 78.70453453 C-60.00894639 85.64781752 -86.17978475 103.06234227 -101.83992004 126.12304783 C-109.01549088 113.20702033 -105.82790834 91.91201475 -102.10163879 78.20117283 C-93.51325408 49.51419709 -75.2103954 26.48378396 -49.14460754 11.8217783 C-34.09151622 3.73323946 -17.00909562 -0.05685096 0 0 Z " fill="#CE0A2B" transform="translate(128.8399200439453,167.87695217132568)"/>
<path d="M0 0 C50.82 0 101.64 0 154 0 C154.03867187 28.12992187 154.03867187 28.12992187 154.078125 56.828125 C154.10329718 68.72266594 154.12944672 80.61719273 154.16015625 92.51171875 C154.17624595 98.76350838 154.19208909 105.01529855 154.20751953 111.26708984 C154.20946347 112.05053477 154.21140741 112.83397969 154.21341026 113.64116538 C154.24434085 126.25136151 154.26138023 138.86153949 154.27319422 151.47176638 C154.28565208 164.43541661 154.31325719 177.39897237 154.35461307 190.36256289 C154.37961662 198.34700487 154.39312697 206.33128994 154.39142957 214.31577161 C154.391396 220.46203685 154.41254543 226.608072 154.44116783 232.75426674 C154.44961771 235.25821643 154.4514506 237.76219957 154.44580269 240.26615715 C154.41042234 258.37810792 155.36979968 276.31533625 162.625 293.1875 C162.96490967 294.00226807 163.30481934 294.81703613 163.6550293 295.65649414 C169.74282272 309.79274289 177.75155964 321.58660635 188 333 C188.87231527 334.05021953 189.74083713 335.10360187 190.60546875 336.16015625 C196.26250582 342.86923611 203.46715905 348.00644392 210.36328125 353.375 C210.90952148 353.81061752 211.45576172 354.24623505 212.01855469 354.6950531 C214.03215317 356.13016956 214.03215317 356.13016956 216.72363281 356.99452209 C220.39297877 358.56849625 222.41798112 359.92057384 225 363 C227.12333873 370.17836454 226.27317482 378.16842864 226.07421875 385.55859375 C226.05369084 387.79057478 226.0380382 390.02260553 226.02705383 392.25465393 C225.98514255 398.11679012 225.87717399 403.97590648 225.75531006 409.83685303 C225.64258465 415.82246038 225.59250224 421.808558 225.53710938 427.79492188 C225.41929536 439.53127155 225.23167118 451.26538425 225 463 C223.43225756 462.85602571 221.86485834 462.70831176 220.29760742 462.55908203 C218.98828499 462.43631393 218.98828499 462.43631393 217.6525116 462.31106567 C213.45989168 461.81938822 209.4079011 460.87975008 205.3125 459.875 C204.41241211 459.65545654 203.51232422 459.43591309 202.58496094 459.2097168 C147.64813623 445.51341115 99.18928977 419.69481284 58 381 C57.34386719 380.38640625 56.68773437 379.7728125 56.01171875 379.140625 C50.85947889 374.16604858 46.44749854 368.60136516 42 363 C40.80697266 361.53240234 40.80697266 361.53240234 39.58984375 360.03515625 C11.37813257 324.58050179 -0.362576 284.6269552 -0.22705078 239.87915039 C-0.22648583 237.25628158 -0.22680487 234.63341245 -0.22793579 232.01054382 C-0.22897814 226.39098754 -0.22277009 220.77147816 -0.21146011 215.15193367 C-0.1951191 207.02729315 -0.18998837 198.90267501 -0.18748413 190.77801984 C-0.18312043 177.59231617 -0.16984752 164.40663742 -0.15087891 151.22094727 C-0.13248565 138.42179486 -0.11836903 125.62264928 -0.10986328 112.82348633 C-0.10932729 112.02485048 -0.10879129 111.22621464 -0.10823905 110.40337771 C-0.10407955 104.15635868 -0.10016593 97.9093395 -0.09632993 91.66232026 C-0.07750525 61.10819062 -0.0372586 30.55412346 0 0 Z " fill="#CF0A2C" transform="translate(148,266)"/>
<path d="M0 0 C80.52 0 161.04 0 244 0 C244 11.22 244 22.44 244 34 C241.586875 34.02578125 239.17375 34.0515625 236.6875 34.078125 C234.29090829 34.11678726 231.89451453 34.16186805 229.49804688 34.20751953 C227.86142799 34.23535101 226.22468413 34.2567487 224.58789062 34.27099609 C205.22404011 34.44940995 188.81682489 37.59874281 174.125 51.25 C161.12242158 65.2068961 158.38406066 81.25228866 158.50120544 99.49139404 C158.49747097 101.22149228 158.49197534 102.95158744 158.48488861 104.6816752 C158.47053469 109.40002612 158.48074868 114.11804347 158.49517167 118.83638215 C158.50634111 123.9396293 158.49427375 129.04282884 158.48498535 134.14607239 C158.47192217 142.98174833 158.4730404 151.81732956 158.48357964 160.65300751 C158.49856527 173.45602933 158.48856896 186.25894085 158.47206045 199.06195644 C158.44562139 219.87415232 158.43473954 240.68632339 158.43579102 261.49853516 C158.43584934 262.74284688 158.43590766 263.98715861 158.43596775 265.26917675 C158.43623355 270.30957033 158.43655081 275.34996391 158.43693101 280.39035748 C158.4378959 294.23924256 158.43657121 308.08812689 158.43383789 321.93701172 C158.43347805 323.79573151 158.43347805 323.79573151 158.43311094 325.69200119 C158.4286916 346.41474951 158.41240601 367.13747491 158.3886171 387.8602097 C158.37460798 400.6162685 158.37161103 413.37223964 158.38323999 426.12830135 C158.39060937 434.88542727 158.38743789 443.6425093 158.37628155 452.39963105 C158.37025869 457.43780617 158.36898211 462.47585801 158.38115883 467.51402473 C158.51723853 527.64969262 146.95556149 581.11479415 104 626 C103.38125 626.65129883 102.7625 627.30259766 102.125 627.97363281 C91.81013805 638.76478736 81.18944828 648.38156193 69 657 C68.40219727 657.43183594 67.80439453 657.86367188 67.18847656 658.30859375 C27.302059 687 27.302059 687 12 687 C11.62787223 676.12581045 11.34430872 665.25315392 11.17100525 654.37387466 C11.08778362 649.32067973 10.97512653 644.27186464 10.79296875 639.22119141 C10.61798421 634.33836347 10.52323975 629.45972029 10.48196411 624.5739975 C10.45259132 622.71879916 10.39521742 620.86380893 10.30831909 619.01041412 C9.67332446 604.89434899 9.67332446 604.89434899 13.54104614 600.08296204 C17.32623836 596.54799045 21.54525097 593.88916118 25.99497986 591.27542877 C29.16603207 589.25826638 31.84909392 586.77279245 34.5625 584.1875 C35.52027344 583.28128906 36.47804688 582.37507812 37.46484375 581.44140625 C38.30144531 580.63574219 39.13804687 579.83007812 40 579 C40.96099609 578.11634766 40.96099609 578.11634766 41.94140625 577.21484375 C65.38982038 555.07214177 81.34885758 518.87589385 82.34253852 486.77537159 C82.39942701 483.05279385 82.39270182 479.33212458 82.3742218 475.60926819 C82.37696939 473.91482766 82.38102742 472.22038885 82.38626546 470.52595419 C82.39675812 465.91616722 82.38878524 461.30657683 82.37751496 456.69679868 C82.36861519 451.70775962 82.37713286 446.7187447 82.38337708 441.72970581 C82.39283219 431.97646335 82.38629494 422.22329524 82.37411413 412.47005833 C82.36045185 401.10500744 82.3621356 389.73997398 82.36424746 378.37491696 C82.36743229 358.09782981 82.3557968 337.82077788 82.33618164 317.54370117 C82.31716203 297.87702361 82.31009932 278.21038727 82.31567383 258.54370117 C82.32173239 237.1059775 82.32155448 215.66827192 82.310188 194.23054975 C82.30898074 191.94480638 82.30777475 189.659063 82.30657005 187.37331963 C82.30596651 186.24878474 82.30536298 185.12424985 82.30474115 183.96563815 C82.30086412 176.0463096 82.30125472 168.1269878 82.3031559 160.20765877 C82.30527844 150.56037598 82.30004877 140.91312926 82.28554235 131.26585663 C82.27830265 126.34524197 82.27421782 121.42467984 82.27878571 116.50406075 C82.28286667 111.99840682 82.27768368 107.49286129 82.26515963 102.9872238 C82.26223572 101.35902225 82.26265878 99.73081045 82.26680271 98.10261155 C82.28517968 90.15994072 82.18049172 82.69220089 80 75 C79.72800781 74.03191406 79.45601562 73.06382813 79.17578125 72.06640625 C76.80191867 65.18113063 73.56707353 59.66392762 69 54 C68.44957031 53.30003906 67.89914062 52.60007813 67.33203125 51.87890625 C63.26946963 47.278257 58.65150953 44.45112239 53.25 41.6875 C52.61908447 41.36185059 51.98816895 41.03620117 51.33813477 40.70068359 C39.80986087 35.1424861 28.31440167 34.50634862 15.75 34.3125 C10.5525 34.209375 5.355 34.10625 0 34 C0 22.78 0 11.56 0 0 Z " fill="#CE0A2B" transform="translate(564,24)"/>
<path d="M0 0 C106.92 0 213.84 0 324 0 C324 11.22 324 22.44 324 34 C308.5 34.25 308.5 34.25 303.72070312 34.29785156 C291.24926975 34.59155165 278.29037328 35.92515729 267.6875 43.0625 C266.66011719 43.73410156 265.63273437 44.40570313 264.57421875 45.09765625 C262.04601735 46.86458965 262.04601735 46.86458965 260.26953125 48.74609375 C259 50 259 50 257 50 C256.73960937 50.56332031 256.47921875 51.12664062 256.2109375 51.70703125 C254.88099816 54.22533574 253.31499004 56.39605062 251.625 58.6875 C238.40360989 77.43383691 241.62944168 96.08121617 241 120 C190.18 120 139.36 120 87 120 C86.67 108.12 86.34 96.24 86 84 C81.11360147 65.67600553 75.39531941 52.31015489 58.83203125 42.46484375 C49.14694616 37.45531698 38.99008819 34.74934692 28.125 34.5859375 C26.91009888 34.55688828 26.91009888 34.55688828 25.6706543 34.5272522 C23.11387266 34.46803998 20.55704455 34.42130754 18 34.375 C16.2538879 34.33676633 14.50779358 34.29771157 12.76171875 34.2578125 C8.50791127 34.16085962 4.25426574 34.08083105 0 34 C0 22.78 0 11.56 0 0 Z " fill="#CD0A2B" transform="translate(61,24)"/>
<path d="M0 0 C0.66 0 1.32 0 2 0 C8.21628812 27.80678883 1.28369853 56.35839789 -13.76171875 80.18847656 C-16.99234369 84.91466683 -20.93657437 88.98366705 -25 93 C-25.83402344 93.83660156 -26.66804687 94.67320312 -27.52734375 95.53515625 C-28.34332031 96.34855469 -29.15929687 97.16195312 -30 98 C-30.69738281 98.70640625 -31.39476562 99.4128125 -32.11328125 100.140625 C-57.23766327 124.2386113 -90.75875868 126.63482279 -123.6875 126.25 C-133.690625 126.1675 -143.69375 126.085 -154 126 C-154 101.58 -154 77.16 -154 52 C-120.125 51.75 -120.125 51.75 -109.54736328 51.70214844 C-72.05031048 51.38093411 -39.46342003 41.80005239 -12 15 C-6.15832137 9.01287521 -6.15832137 9.01287521 -1.37109375 2.203125 C-0.69240234 1.11257812 -0.69240234 1.11257812 0 0 Z " fill="#CD0A2B" transform="translate(900,116)"/>
</svg>
